<svg width="40" height="13" viewBox="0 0 40 13" fill="none" xmlns="http://www.w3.org/2000/svg">
<path opacity="0.15" d="M39.6503 0.75H0.350312C0.332312 0.75 0.320312 0.761854 0.320312 0.779634V6.1849C0.320312 9.72915 3.26031 12.6037 6.87831 12.6037C9.3203 12.6037 11.4503 11.2998 12.5843 9.36168C12.7583 9.05941 13.0883 8.86976 13.4423 8.86976C13.7963 8.86976 14.1203 9.05941 14.3003 9.36168C15.4283 11.2998 17.5583 12.6037 20.0003 12.6037C22.4483 12.6037 24.5843 11.2938 25.7063 9.34983C25.8803 9.05349 26.1983 8.86976 26.5403 8.86976H26.5763C26.9243 8.86976 27.2363 9.05349 27.4103 9.34983C28.5383 11.2938 30.6743 12.6037 33.1223 12.6037C36.7403 12.6037 39.6803 9.72915 39.6803 6.1849V0.779634C39.6803 0.761854 39.6683 0.75 39.6503 0.75Z" fill="#0D5C63"/>
</svg>
